<svg xmlns="http://www.w3.org/2000/svg" width="600" height="800" viewBox="0 0 600 800" fill="none">
  <path d="M300 70c-46 0-83 37-83 83 0 24 6 41 6 60 0 21-18 39-39 39h-8c-46 0-84 38-84 84 0 46 38 84 84 84h3c19 0 35 16 35 35 0 23-17 43-17 68 0 46 38 84 84 84 24 0 44-9 59-25 15 16 35 25 59 25 46 0 84-38 84-84 0-25-17-45-17-68 0-19 16-35 35-35h3c46 0 84-38 84-84 0-46-38-84-84-84h-8c-21 0-39-18-39-39 0-19 6-36 6-60 0-46-37-83-83-83h-20Z" stroke="#C9A36B" stroke-width="12" stroke-linecap="round" stroke-linejoin="round" />
</svg>
